# xmcd
#
# Track frame offsets:
#  150
#  16980
#  37300
#  54295
#  75087
#  94315
#  116050
#  147650
#  168422
#  228065
#  250785
#
# Disc length: 3557 seconds
#
# Revision: 3
# Processed by: cddbd v1.5.2PL0 Copyright (c) Steve Scherf et al.
# Submitted via: Collectorz.com_Music_Collector 6.11
#
DISCID=870de30b
DTITLE=Jones, Paul Ubana - Paul Ubana Jones
DYEAR=1988
DGENRE=Folk
TTITLE0=Hoochie Coochie Man
TTITLE1=Daddy Don't Live Here Any More
TTITLE2=I'm Serving Time
TTITLE3=Blue Melody
TTITLE4=The Music Is Why I'm Here
TTITLE5=Africa - The Sunburnt Stone
TTITLE6=Mountain Song
TTITLE7=I'm Counting On Love
TTITLE8=Raga "Bird Without Song"
TTITLE9=Louise
TTITLE10=Aisha (Instrumental)
EXTD=
EXTT0=
EXTT1=
EXTT2=
EXTT3=
EXTT4=
EXTT5=
EXTT6=
EXTT7=
EXTT8=
EXTT9=
EXTT10=
PLAYORDER=
